<?xml version="1.0" encoding="UTF-8"?>
<svg id="Capa_2" data-name="Capa 2" xmlns="http://www.w3.org/2000/svg" viewBox="0 0 118.49 97.21">
  <defs>
    <style>
      .cls-1 {
        fill: #948067;
      }

      .cls-1, .cls-2, .cls-3, .cls-4, .cls-5 {
        stroke: #000;
        stroke-miterlimit: 10;
        stroke-width: 3px;
      }

      .cls-2 {
        fill: #6a5365;
      }

      .cls-3 {
        fill: #be6b41;
      }

      .cls-4 {
        fill: #cbf7ee;
      }

      .cls-6 {
        fill: #b980c1;
      }

      .cls-5 {
        fill: none;
      }
    </style>
  </defs>
  <polyline class="cls-6" points="103.23 95 103.23 44.19 76.61 17.57 32.42 16.42 8.03 46.8 10.16 47.1 10.16 95.25 103.61 95.13"/>
  <polyline class="cls-5" points="103.51 46.56 103.51 95.71 9.38 95.71 9.38 46.56"/>
  <polygon class="cls-2" points="34.06 16.18 67.63 53.84 114.87 53.84 77.53 16.5 34.06 16.18"/>
  <path class="cls-5" d="M1.18,55.06c10.21-13.09,20.41-26.17,30.62-39.26"/>
  <rect class="cls-3" x="57.8" y="1.5" width="13.53" height="22.09"/>
  <polygon class="cls-4" points="46.56 42.98 42.07 42.98 42.07 37.93 37.24 37.93 37.24 33.66 29.32 33.66 29.32 37.93 24.49 37.93 24.49 42.98 20 42.98 20 50.89 24.49 50.89 24.49 55.93 29.32 55.93 29.32 60.21 37.24 60.21 37.24 55.93 42.07 55.93 42.07 50.89 46.56 50.89 46.56 42.98"/>
  <line class="cls-5" x1="67.52" y1="54.59" x2="67.52" y2="96.2"/>
  <rect class="cls-1" x="26.54" y="71.14" width="15.66" height="24.17"/>
  <rect x="76.16" y="61.61" width="21.11" height="13.96"/>
</svg>