<?xml version="1.0" encoding="UTF-8"?>
<svg id="Capa_2" data-name="Capa 2" xmlns="http://www.w3.org/2000/svg" viewBox="0 0 62.26 52.55">
  <defs>
    <style>
      .cls-1, .cls-2 {
        fill: #af6122;
      }

      .cls-3 {
        fill: #f2f8ec;
      }

      .cls-4 {
        fill: #fffeff;
      }

      .cls-2, .cls-5 {
        stroke-width: 3px;
      }

      .cls-2, .cls-5, .cls-6 {
        stroke: #000;
        stroke-miterlimit: 10;
      }

      .cls-5, .cls-6 {
        fill: none;
      }

      .cls-6 {
        stroke-width: 7px;
      }
    </style>
  </defs>
  <polygon class="cls-2" points="19.95 38.93 17.84 38.93 17.84 21.5 17.52 21.5 17.52 13.71 4.05 13.71 4.05 21.5 1.5 21.5 1.5 41.29 3.93 41.29 3.93 45.82 8.33 45.82 8.33 51.05 16.5 51.05 16.5 45.82 19.95 45.82 19.95 38.93"/>
  <polygon class="cls-2" points="42.31 38.93 44.41 38.93 44.41 21.5 44.73 21.5 44.73 13.71 58.2 13.71 58.2 21.5 60.76 21.5 60.76 41.29 58.33 41.29 58.33 45.82 53.93 45.82 53.93 51.05 45.76 51.05 45.76 45.82 42.31 45.82 42.31 38.93"/>
  <g>
    <g>
      <polygon class="cls-1" points="49.86 10.22 46.33 10.22 46.33 5.33 39.25 5.33 39.25 1.5 23.61 1.5 23.61 5.33 16.53 5.33 16.53 10.22 13 10.22 13 41.88 25.27 41.88 25.27 47.27 37.59 47.27 37.59 41.88 49.86 41.88 49.86 10.22"/>
      <polygon class="cls-4" points="40.78 29.46 37.11 29.46 37.11 22.18 33.63 22.18 33.63 11.59 39.12 11.59 39.12 1.5 23.74 1.5 23.74 11.59 29.23 11.59 29.23 22.18 25.75 22.18 25.75 29.46 22.08 29.46 22.08 42.22 24.86 42.22 24.86 47.27 38 47.27 38 42.22 40.78 42.22 40.78 29.46"/>
    </g>
    <g>
      <polygon class="cls-5" points="49.86 10.22 46.33 10.22 46.33 5.33 39.25 5.33 39.25 1.5 23.61 1.5 23.61 5.33 16.53 5.33 16.53 10.22 13 10.22 13 41.88 25.27 41.88 25.27 47.27 37.59 47.27 37.59 41.88 49.86 41.88 49.86 10.22"/>
      <g>
        <g>
          <line class="cls-6" x1="26.09" y1="35.47" x2="37.03" y2="35.47"/>
          <line class="cls-5" x1="31.56" y1="42.11" x2="31.56" y2="35.6"/>
        </g>
        <g>
          <g>
            <rect x="18.48" y="13.1" width="7.62" height="7.62"/>
            <rect class="cls-3" x="21.89" y="13.1" width="4.21" height="4.21"/>
          </g>
          <g>
            <rect x="37.07" y="13.1" width="7.62" height="7.62"/>
            <rect class="cls-3" x="40.48" y="13.1" width="4.21" height="4.21"/>
          </g>
        </g>
      </g>
    </g>
  </g>
</svg>