<?xml version="1.0" encoding="UTF-8"?>
<svg id="Capa_2" data-name="Capa 2" xmlns="http://www.w3.org/2000/svg" viewBox="0 0 59.68 31.34">
  <defs>
    <style>
      .cls-1 {
        fill: #58930c;
      }

      .cls-1, .cls-2 {
        stroke: #000;
        stroke-miterlimit: 10;
        stroke-width: 3px;
      }

      .cls-3 {
        fill: #344c0d;
      }

      .cls-2 {
        fill: #1f6d0c;
      }

      .cls-4 {
        fill: #1d2b02;
      }
    </style>
  </defs>
  <rect class="cls-1" x="1.5" y="1.5" width="56.68" height="28.34"/>
  <g>
    <polygon class="cls-2" points="37.33 10.88 35.75 10.88 35.75 7.22 23.34 7.22 23.34 10.88 21.76 10.88 21.76 22.08 23.34 22.08 23.34 25.74 35.75 25.74 35.75 22.08 37.33 22.08 37.33 10.88"/>
    <polygon class="cls-4" points="33.44 18.53 32.32 18.53 32.32 14.38 33.37 14.38 33.37 10 30.35 10 30.35 11.12 26.79 11.12 26.79 13.26 24.52 13.26 24.52 17.13 26.79 17.13 26.79 18.53 25.64 18.53 25.64 25.06 26.79 25.06 26.79 25.08 32.32 25.08 32.32 25.06 33.44 25.06 33.44 18.53"/>
  </g>
  <polygon class="cls-3" points="55.59 24.16 54.93 24.16 54.93 21.71 55.55 21.71 55.55 19.13 53.77 19.13 53.77 19.79 51.66 19.79 51.66 21.05 50.32 21.05 50.32 23.33 51.66 23.33 51.66 24.16 50.98 24.16 50.98 28.02 51.66 28.02 51.66 28.03 54.93 28.03 54.93 28.02 55.59 28.02 55.59 24.16"/>
  <polygon class="cls-3" points="8.74 8.58 8.08 8.58 8.08 6.13 8.7 6.13 8.7 3.55 6.92 3.55 6.92 4.21 4.82 4.21 4.82 5.47 3.47 5.47 3.47 7.75 4.82 7.75 4.82 8.58 4.14 8.58 4.14 12.44 4.82 12.44 4.82 12.45 8.08 12.45 8.08 12.44 8.74 12.44 8.74 8.58"/>
</svg>