<?xml version="1.0" encoding="UTF-8"?>
<svg id="Capa_2" data-name="Capa 2" xmlns="http://www.w3.org/2000/svg" viewBox="0 0 62.57 35.87">
  <defs>
    <style>
      .cls-1 {
        fill: #ede4db;
        stroke: #000;
        stroke-miterlimit: 10;
        stroke-width: 3px;
      }
    </style>
  </defs>
  <polygon class="cls-1" points="59.85 21.85 58.05 21.86 58.04 19.45 56.13 19.45 56.12 16.19 61.06 16.09 61.02 7.37 56.08 7.46 56.07 4.18 52.75 4.19 52.73 1.51 46.23 1.53 46.24 4.72 44.03 4.73 44.04 8.13 41.94 8.14 41.95 11.44 20.15 11.44 20.15 8.42 16.25 8.42 16.25 5.39 12.6 5.39 12.6 2.96 7.31 2.96 7.31 5.39 4.53 5.39 4.53 7.81 2.74 7.81 2.74 14 4.53 14 4.53 16.41 6.44 16.41 6.44 19.68 1.5 19.75 1.5 28.47 6.44 28.4 6.44 31.68 9.77 31.68 9.77 34.37 16.28 34.37 16.28 31.18 18.49 31.18 18.49 27.78 20.59 27.78 20.59 23.28 42.44 23.28 42.45 27.49 46.36 27.48 46.37 30.52 50.01 30.5 50.02 32.93 55.32 32.91 55.31 30.48 58.09 30.47 58.08 28.04 59.87 28.03 59.85 21.85"/>
</svg>