<?xml version="1.0" encoding="UTF-8"?>
<svg id="Capa_2" data-name="Capa 2" xmlns="http://www.w3.org/2000/svg" viewBox="0 0 56.86 148.87">
  <defs>
    <style>
      .cls-1 {
        fill: #ede4db;
      }

      .cls-1, .cls-2, .cls-3, .cls-4, .cls-5, .cls-6, .cls-7 {
        stroke-miterlimit: 10;
      }

      .cls-1, .cls-3, .cls-4, .cls-5, .cls-6 {
        stroke-width: 3px;
      }

      .cls-1, .cls-3, .cls-5, .cls-6, .cls-7 {
        stroke: #000;
      }

      .cls-8 {
        fill: #e7e2bc;
      }

      .cls-2 {
        stroke: #e7e2bc;
        stroke-width: 6px;
      }

      .cls-2, .cls-4, .cls-6, .cls-7 {
        fill: none;
      }

      .cls-9 {
        fill: #f2f8ec;
      }

      .cls-4 {
        stroke: #80766d;
      }

      .cls-5 {
        fill: #a86c3b;
      }

      .cls-10 {
        fill: #80766d;
      }

      .cls-7 {
        stroke-width: 7px;
      }
    </style>
  </defs>
  <g>
    <rect class="cls-5" x="13.42" y="109.14" width="30.89" height="18.64"/>
    <polygon class="cls-1" points="42.95 67.95 42.95 62.16 15.2 62.16 15.2 67.95 7.29 67.95 7.29 119.18 50.86 119.18 50.86 67.95 42.95 67.95"/>
    <rect class="cls-10" x="25.94" y="74.84" width="4.85" height="4.85"/>
    <rect class="cls-10" x="25.94" y="86.12" width="4.85" height="4.85"/>
    <rect class="cls-10" x="25.94" y="97.39" width="4.85" height="4.85"/>
    <g>
      <polygon class="cls-3" points="27.41 139.49 8.01 139.49 15.67 129.79 27.41 129.79 27.41 139.49"/>
      <polygon class="cls-3" points="30.32 139.49 49.72 139.49 42.06 129.79 30.32 129.79 30.32 139.49"/>
    </g>
    <rect class="cls-3" x="4.77" y="140.8" width="48.19" height="6.57"/>
  </g>
  <g>
    <g>
      <polygon class="cls-1" points="42.76 6.8 32.03 6.8 32.03 1.5 20.73 1.5 20.73 7.12 14.86 7.12 14.86 15.8 18.37 15.8 18.37 28.76 38.54 28.76 38.54 15.03 42.76 15.03 42.76 6.8"/>
      <line class="cls-4" x1="24.54" y1="15.35" x2="24.54" y2="27.35"/>
      <line class="cls-4" x1="31.05" y1="13.1" x2="31.05" y2="27.35"/>
    </g>
    <g>
      <g>
        <g>
          <path class="cls-8" d="M47.09,48.23h3.64v9l-6.19,6.19h-3.64l-4.18,4.18h-15.73l-3.53-3.53h-5.03l-5.91-5.91.04-9.74c1.28-.04,2.55-.09,3.83-.13"/>
          <path class="cls-10" d="M10.27,48.29v-14.55l6.96-6.96h4.4v-4.28h12.77v3.83h6.64l5.94,7.34v14.55"/>
        </g>
        <path class="cls-6" d="M47.09,33.67v14.55h3.64v9l-6.19,6.19h-3.64l-4.18,4.18h-15.73l-3.53-3.53h-5.03l-5.91-5.91.04-9.74c1.28-.04,2.55-.09,3.83-.13v-14.55l6.96-6.96h4.4v-4.28h12.77v3.83h6.64l5.94,7.34Z"/>
      </g>
      <g>
        <g>
          <line class="cls-7" x1="22.73" y1="52.33" x2="33.67" y2="52.33"/>
          <line class="cls-6" x1="28.2" y1="58.97" x2="28.2" y2="52.46"/>
        </g>
        <line class="cls-2" x1="15.03" y1="35.31" x2="22.65" y2="35.31"/>
        <line class="cls-2" x1="33.69" y1="35.65" x2="41.31" y2="35.65"/>
        <g>
          <g>
            <rect x="15.12" y="39.96" width="7.62" height="7.62"/>
            <rect class="cls-9" x="18.53" y="39.96" width="4.21" height="4.21"/>
          </g>
          <g>
            <rect x="33.71" y="39.96" width="7.62" height="7.62"/>
            <rect class="cls-9" x="37.12" y="39.96" width="4.21" height="4.21"/>
          </g>
        </g>
      </g>
    </g>
    <g>
      <path class="cls-10" d="M14.29,30.56v-7.24c-1.95-.85-3.9-1.7-5.85-2.55-2.19.85-4.37,1.7-6.56,2.55v7.24h12.41Z"/>
      <path class="cls-8" d="M1.88,30.6v7.24c1.96.85,3.91,1.7,5.86,2.55,2.19-.85,4.37-1.71,6.56-2.56v-7.24s-12.41.01-12.41.01Z"/>
      <path class="cls-6" d="M13.91,37.92c-1.81.89-3.61,1.79-5.42,2.68-2.33-.89-4.66-1.79-6.99-2.68v-15.96c2.19-.85,4.37-1.7,6.56-2.55,1.95.85,3.9,1.7,5.85,2.55v15.96Z"/>
    </g>
    <g>
      <path class="cls-10" d="M55.75,30.08v-7.24c-1.95-.85-3.9-1.7-5.85-2.55-2.19.85-4.37,1.7-6.56,2.55v7.24h12.41Z"/>
      <path class="cls-8" d="M43.34,30.11v7.24c1.96.85,3.91,1.7,5.86,2.55,2.19-.85,4.37-1.71,6.56-2.56v-7.24s-12.41.01-12.41.01Z"/>
      <path class="cls-6" d="M55.36,37.43c-1.81.89-3.61,1.79-5.42,2.68-2.33-.89-4.66-1.79-6.99-2.68v-15.96c2.19-.85,4.37-1.7,6.56-2.55,1.95.85,3.9,1.7,5.85,2.55v15.96Z"/>
    </g>
  </g>
</svg>