<?xml version="1.0" encoding="UTF-8"?>
<svg xmlns="http://www.w3.org/2000/svg" viewBox="0 0 1080 1920">
  <defs>
    <style>
      .cls-1, .cls-2, .cls-3, .cls-4, .cls-5, .cls-6, .cls-7, .cls-8, .cls-9, .cls-10, .cls-11, .cls-12, .cls-13, .cls-14, .cls-15, .cls-16, .cls-17, .cls-18, .cls-19, .cls-20 {
        stroke-miterlimit: 10;
      }

      .cls-1, .cls-2, .cls-3, .cls-4, .cls-5, .cls-6, .cls-7, .cls-8, .cls-9, .cls-11, .cls-12, .cls-13, .cls-14, .cls-15, .cls-16, .cls-17, .cls-18, .cls-19 {
        stroke: #000;
      }

      .cls-1, .cls-10, .cls-15, .cls-16, .cls-19 {
        stroke-width: 20.36px;
      }

      .cls-1, .cls-11, .cls-14 {
        fill: #ede4db;
      }

      .cls-2 {
        fill: #e5cf98;
      }

      .cls-2, .cls-6, .cls-12 {
        stroke-width: 15.29px;
      }

      .cls-3, .cls-4 {
        stroke-width: 10.6px;
      }

      .cls-3, .cls-18 {
        fill: #58930c;
      }

      .cls-21 {
        fill: #634d3b;
        font-family: Micro5-Regular, 'Micro 5';
        font-size: 222.01px;
      }

      .cls-22 {
        fill: #e7e2bc;
      }

      .cls-23 {
        fill: #a3d86f;
      }

      .cls-4, .cls-13 {
        fill: #1f6d0c;
      }

      .cls-24 {
        fill: #344c0d;
      }

      .cls-5, .cls-7, .cls-8, .cls-10, .cls-12, .cls-15, .cls-17, .cls-20 {
        fill: none;
      }

      .cls-5, .cls-9 {
        stroke-width: 14.52px;
      }

      .cls-25, .cls-9 {
        fill: #af6122;
      }

      .cls-6 {
        fill: #efc9af;
      }

      .cls-7 {
        stroke-width: 35.67px;
      }

      .cls-8 {
        stroke-width: 47.51px;
      }

      .cls-26 {
        fill: #f2f8ec;
      }

      .cls-10 {
        stroke: #80766d;
      }

      .cls-11 {
        stroke-width: 13.48px;
      }

      .cls-27 {
        fill: #80766d;
      }

      .cls-13, .cls-18 {
        stroke-width: 12.13px;
      }

      .cls-28 {
        fill: #fffeff;
      }

      .cls-14 {
        stroke-width: 9.46px;
      }

      .cls-16 {
        fill: #a86c3b;
      }

      .cls-17 {
        stroke-width: 33.88px;
      }

      .cls-29 {
        fill: #1d2b02;
      }

      .cls-20 {
        stroke: #e7e2bc;
        stroke-width: 40.72px;
      }

      .cls-30 {
        fill: #998d71;
      }
    </style>
  </defs>
  <g id="Capa_3" data-name="Capa 3">
    <rect class="cls-23" x="-16.34" y="-9.7" width="1111.15" height="1942.47"/>
  </g>
  <g id="Capa_2" data-name="Capa 2">
    <polygon class="cls-14" points="296.38 1181.04 291.39 1178.36 294.98 1171.67 289.68 1168.82 294.55 1159.74 308.39 1166.91 321.4 1142.69 307.56 1135.52 312.46 1126.4 303.23 1121.44 307.24 1113.98 289.16 1104.27 284.4 1113.13 278.26 1109.83 273.18 1119.28 267.35 1116.15 262.43 1125.3 202.03 1092.54 206.56 1084.19 195.74 1078.32 200.3 1069.9 190.2 1064.42 193.85 1057.69 179.18 1049.73 175.53 1056.47 167.84 1052.29 164.19 1059.02 159.21 1056.32 149.92 1073.45 154.9 1076.15 151.27 1082.84 156.56 1085.71 151.65 1094.76 137.85 1087.54 124.74 1111.71 138.54 1118.93 133.61 1128.03 142.82 1133.03 138.78 1140.47 156.82 1150.26 161.61 1141.42 167.74 1144.74 172.86 1135.31 178.68 1138.47 185.43 1126.02 245.97 1158.85 239.69 1170.54 250.54 1176.37 246.01 1184.8 256.13 1190.24 252.51 1196.99 267.21 1204.88 270.83 1198.14 278.55 1202.28 282.17 1195.54 287.16 1198.22 296.38 1181.04"/>
    <text class="cls-21" transform="translate(116.17 384.92)"><tspan x="0" y="0">PERROMICILIO</tspan></text>
    <g>
      <polygon class="cls-11" points="850.74 488.67 820.29 488.67 820.29 466.66 259.71 466.66 259.71 488.67 229.26 488.67 229.26 595.8 259.71 595.8 259.71 617.81 820.29 617.81 820.29 595.8 850.74 595.8 850.74 488.67"/>
      <g>
        <path class="cls-27" d="M388.67,561.49h14.5v14.5h-14.5v-14.5ZM403.17,503.49h14.5v58h-14.5v-58Z"/>
        <path class="cls-27" d="M446.67,561.49h14.5v-58h14.5v72.5h-43.5v-72.5h14.5v58Z"/>
        <path class="cls-27" d="M504.67,561.49h14.5v14.5h-29v-72.5h43.5v14.5h-29v43.5ZM519.18,532.49h14.5v29h-14.5v-29Z"/>
        <path class="cls-27" d="M562.68,532.49h14.5v-14.5h14.5v58h-14.5v-29h-14.5v29h-14.5v-58h14.5v14.5ZM562.68,503.49h14.5v14.5h-14.5v-14.5Z"/>
        <path class="cls-27" d="M635.18,546.99h-14.5v29h-14.5v-72.5h43.5v29h-14.5v-14.5h-14.5v14.5h14.5v14.5ZM635.18,546.99h14.5v29h-14.5v-29Z"/>
      </g>
    </g>
    <g>
      <rect class="cls-18" x="679.68" y="1782.13" width="229.26" height="114.63" transform="translate(-550.47 354.17) rotate(-18.8)"/>
      <g>
        <polygon class="cls-13" points="816.74 1811.36 810.7 1813.41 805.93 1799.39 758.4 1815.57 763.18 1829.59 757.14 1831.65 771.73 1874.5 777.77 1872.45 782.54 1886.47 830.07 1870.29 825.29 1856.26 831.33 1854.21 816.74 1811.36"/>
        <polygon class="cls-29" points="811.8 1845.69 807.52 1847.15 802.11 1831.26 806.13 1829.89 800.43 1813.14 788.87 1817.08 790.33 1821.36 776.7 1826 779.48 1834.19 770.78 1837.15 775.82 1851.95 784.52 1848.99 786.35 1854.36 781.94 1855.86 790.45 1880.87 794.87 1879.37 794.89 1879.44 816.06 1872.24 816.03 1872.16 820.32 1870.7 811.8 1845.69"/>
      </g>
      <polygon class="cls-24" points="903.96 1838.38 901.43 1839.24 898.24 1829.86 900.61 1829.05 897.25 1819.16 890.42 1821.48 891.28 1824.01 883.23 1826.76 884.88 1831.59 879.74 1833.33 882.72 1842.07 887.85 1840.33 888.93 1843.49 886.33 1844.38 891.36 1859.15 893.96 1858.26 893.98 1858.31 906.47 1854.05 906.46 1854.01 908.99 1853.15 903.96 1838.38"/>
      <polygon class="cls-24" points="704.28 1839.79 701.75 1840.65 698.55 1831.27 700.93 1830.47 697.56 1820.57 690.74 1822.9 691.6 1825.43 683.55 1828.17 685.2 1833 680.06 1834.75 683.03 1843.49 688.17 1841.74 689.25 1844.91 686.64 1845.8 691.67 1860.56 694.28 1859.68 694.29 1859.72 706.79 1855.47 706.78 1855.42 709.31 1854.56 704.28 1839.79"/>
    </g>
    <g>
      <rect class="cls-18" x="318.85" y="1749.57" width="229.26" height="114.63" transform="translate(-559.23 236.13) rotate(-18.8)"/>
      <g>
        <polygon class="cls-13" points="455.91 1778.8 449.88 1780.85 445.1 1766.83 397.57 1783.01 402.35 1797.03 396.31 1799.09 410.9 1841.94 416.94 1839.89 421.71 1853.91 469.24 1837.73 464.47 1823.7 470.5 1821.65 455.91 1778.8"/>
        <polygon class="cls-29" points="450.98 1813.13 446.69 1814.59 441.28 1798.7 445.31 1797.33 439.6 1780.58 428.05 1784.52 429.51 1788.8 415.87 1793.44 418.66 1801.62 409.96 1804.59 415 1819.39 423.7 1816.43 425.52 1821.8 421.11 1823.3 429.62 1848.31 434.04 1846.81 434.06 1846.88 455.23 1839.67 455.21 1839.6 459.49 1838.14 450.98 1813.13"/>
      </g>
      <polygon class="cls-24" points="543.13 1805.82 540.6 1806.68 537.41 1797.3 539.79 1796.49 536.42 1786.6 529.6 1788.92 530.46 1791.45 522.41 1794.19 524.05 1799.02 518.91 1800.77 521.89 1809.51 527.03 1807.76 528.11 1810.93 525.5 1811.82 530.53 1826.59 533.13 1825.7 533.15 1825.75 545.65 1821.49 545.63 1821.45 548.16 1820.59 543.13 1805.82"/>
      <polygon class="cls-24" points="343.45 1807.23 340.92 1808.09 337.73 1798.71 340.1 1797.9 336.74 1788.01 329.91 1790.34 330.77 1792.87 322.72 1795.61 324.37 1800.44 319.23 1802.19 322.21 1810.93 327.34 1809.18 328.42 1812.35 325.82 1813.24 330.84 1828 333.45 1827.12 333.47 1827.16 345.96 1822.9 345.95 1822.86 348.48 1822 343.45 1807.23"/>
    </g>
    <g>
      <rect class="cls-18" x="341.88" y="1831.54" width="229.26" height="114.63" transform="translate(91.18 -19.73) rotate(2.75)"/>
      <g>
        <polygon class="cls-13" points="487.69 1870.97 481.32 1870.66 482.03 1855.87 431.88 1853.46 431.17 1868.26 424.8 1867.95 422.63 1913.17 429 1913.47 428.29 1928.27 478.44 1930.68 479.15 1915.88 485.52 1916.19 487.69 1870.97"/>
        <polygon class="cls-29" points="470.49 1901.09 465.96 1900.87 466.77 1884.11 471.02 1884.32 471.87 1866.64 459.67 1866.05 459.45 1870.58 445.07 1869.88 444.65 1878.52 435.47 1878.08 434.72 1893.7 443.9 1894.14 443.63 1899.8 438.97 1899.58 437.7 1925.97 442.36 1926.19 442.36 1926.27 464.69 1927.34 464.7 1927.26 469.22 1927.48 470.49 1901.09"/>
      </g>
      <polygon class="cls-24" points="558.89 1928.14 556.22 1928.02 556.69 1918.12 559.2 1918.24 559.7 1907.8 552.5 1907.46 552.37 1910.13 543.88 1909.72 543.63 1914.82 538.21 1914.56 537.77 1923.78 543.19 1924.04 543.03 1927.38 540.28 1927.25 539.53 1942.83 542.28 1942.97 542.28 1943.01 555.47 1943.64 555.47 1943.6 558.14 1943.73 558.89 1928.14"/>
      <polygon class="cls-24" points="372.65 1856.1 369.98 1855.98 370.45 1846.08 372.96 1846.2 373.46 1835.76 366.26 1835.42 366.13 1838.09 357.64 1837.68 357.39 1842.78 351.97 1842.51 351.53 1851.74 356.95 1852 356.79 1855.34 354.04 1855.21 353.29 1870.79 356.04 1870.92 356.04 1870.97 369.23 1871.6 369.23 1871.56 371.9 1871.69 372.65 1856.1"/>
    </g>
    <g>
      <rect class="cls-18" x="79.52" y="1728.13" width="229.26" height="114.63" transform="translate(-259.9 47.82) rotate(-8.44)"/>
      <g>
        <polygon class="cls-13" points="221.26 1761.86 214.95 1762.79 212.78 1748.14 163.12 1755.51 165.29 1770.16 158.98 1771.1 165.62 1815.87 171.93 1814.94 174.11 1829.59 223.77 1822.23 221.6 1807.57 227.91 1806.63 221.26 1761.86"/>
        <polygon class="cls-29" points="210.23 1794.74 205.75 1795.41 203.29 1778.81 207.5 1778.18 204.9 1760.68 192.82 1762.47 193.49 1766.95 179.24 1769.06 180.51 1777.61 171.42 1778.96 173.71 1794.43 182.8 1793.08 183.63 1798.69 179.02 1799.37 182.9 1825.51 187.51 1824.82 187.52 1824.9 209.64 1821.62 209.63 1821.54 214.11 1820.88 210.23 1794.74"/>
      </g>
      <polygon class="cls-24" points="302.2 1804.13 299.56 1804.52 298.1 1794.72 300.59 1794.35 299.05 1784.02 291.92 1785.07 292.31 1787.72 283.9 1788.97 284.65 1794.01 279.28 1794.81 280.64 1803.94 286.01 1803.15 286.5 1806.46 283.77 1806.86 286.06 1822.29 288.79 1821.89 288.79 1821.94 301.85 1820 301.85 1819.95 304.49 1819.56 302.2 1804.13"/>
      <polygon class="cls-24" points="105.52 1769.6 102.88 1769.99 101.42 1760.19 103.91 1759.82 102.37 1749.48 95.24 1750.54 95.63 1753.19 87.22 1754.43 87.97 1759.48 82.6 1760.28 83.96 1769.41 89.33 1768.61 89.82 1771.93 87.09 1772.33 89.38 1787.76 92.11 1787.36 92.11 1787.4 105.17 1785.46 105.16 1785.42 107.81 1785.03 105.52 1769.6"/>
    </g>
    <g>
      <rect class="cls-18" x="268.81" y="1715.86" width="229.26" height="114.63" transform="translate(495.62 -37.51) rotate(15.75)"/>
      <g>
        <polygon class="cls-13" points="417.84 1762.77 411.7 1761.04 415.72 1746.78 367.4 1733.15 363.38 1747.41 357.24 1745.68 344.96 1789.25 351.1 1790.98 347.07 1805.24 395.4 1818.87 399.42 1804.61 405.56 1806.34 417.84 1762.77"/>
        <polygon class="cls-29" points="394.3 1788.25 389.95 1787.02 394.5 1770.87 398.59 1772.02 403.4 1754.99 391.65 1751.68 390.42 1756.03 376.55 1752.12 374.21 1760.44 365.36 1757.95 361.12 1773 369.96 1775.49 368.43 1780.95 363.94 1779.68 356.77 1805.11 361.26 1806.38 361.23 1806.46 382.75 1812.52 382.78 1812.45 387.13 1813.68 394.3 1788.25"/>
      </g>
      <polygon class="cls-24" points="474.36 1834.49 471.78 1833.76 474.47 1824.23 476.89 1824.91 479.72 1814.85 472.79 1812.9 472.06 1815.47 463.88 1813.16 462.49 1818.07 457.27 1816.6 454.76 1825.49 459.99 1826.96 459.08 1830.18 456.43 1829.43 452.19 1844.45 454.84 1845.2 454.83 1845.24 467.54 1848.82 467.55 1848.78 470.12 1849.5 474.36 1834.49"/>
      <polygon class="cls-24" points="309.09 1722.41 306.51 1721.68 309.2 1712.15 311.62 1712.83 314.46 1702.77 307.52 1700.82 306.79 1703.39 298.61 1701.08 297.22 1705.99 292 1704.52 289.49 1713.41 294.72 1714.88 293.81 1718.1 291.16 1717.35 286.92 1732.37 289.57 1733.12 289.56 1733.16 302.27 1736.74 302.28 1736.7 304.85 1737.42 309.09 1722.41"/>
    </g>
    <g>
      <rect class="cls-18" x="-28.74" y="1811.88" width="229.26" height="114.63" transform="translate(-597.86 127.43) rotate(-18.8)"/>
      <g>
        <polygon class="cls-13" points="108.32 1841.11 102.28 1843.16 97.51 1829.14 49.98 1845.32 54.76 1859.35 48.72 1861.4 63.31 1904.25 69.35 1902.2 74.12 1916.22 121.65 1900.04 116.87 1886.02 122.91 1883.96 108.32 1841.11"/>
        <polygon class="cls-29" points="103.38 1875.44 99.1 1876.9 93.69 1861.02 97.72 1859.64 92.01 1842.89 80.45 1846.83 81.91 1851.11 68.28 1855.76 71.06 1863.94 62.36 1866.9 67.4 1881.7 76.1 1878.74 77.93 1884.11 73.52 1885.61 82.03 1910.62 86.45 1909.12 86.47 1909.19 107.64 1901.99 107.61 1901.91 111.9 1900.45 103.38 1875.44"/>
      </g>
      <polygon class="cls-24" points="195.54 1868.13 193.01 1868.99 189.82 1859.61 192.2 1858.8 188.83 1848.91 182 1851.23 182.87 1853.76 174.82 1856.51 176.46 1861.34 171.32 1863.09 174.3 1871.83 179.44 1870.08 180.51 1873.25 177.91 1874.13 182.94 1888.9 185.54 1888.01 185.56 1888.06 198.05 1883.8 198.04 1883.76 200.57 1882.9 195.54 1868.13"/>
      <polygon class="cls-24" points="-4.14 1869.54 -6.67 1870.4 -9.87 1861.03 -7.49 1860.22 -10.86 1850.33 -17.68 1852.65 -16.82 1855.18 -24.87 1857.92 -23.22 1862.75 -28.36 1864.5 -25.38 1873.24 -20.25 1871.49 -19.17 1874.66 -21.78 1875.55 -16.75 1890.31 -14.14 1889.43 -14.13 1889.47 -1.63 1885.22 -1.64 1885.17 .89 1884.31 -4.14 1869.54"/>
    </g>
    <g>
      <rect class="cls-3" x="-70.68" y="1705.7" width="200.2" height="100.1" transform="translate(1413.12 674.6) rotate(52.96)"/>
      <g>
        <polygon class="cls-4" points="58.84 1766.68 55.49 1762.24 65.81 1754.44 39.4 1719.45 29.07 1727.24 25.72 1722.79 -5.83 1746.61 -2.48 1751.05 -12.8 1758.85 13.61 1793.84 23.93 1786.05 27.29 1790.5 58.84 1766.68"/>
        <polygon class="cls-29" points="29.02 1771.97 26.63 1768.82 38.33 1759.99 40.57 1762.95 52.9 1753.64 46.48 1745.13 43.32 1747.51 35.75 1737.47 29.72 1742.02 24.89 1735.61 13.99 1743.84 18.82 1750.25 14.87 1753.23 12.42 1749.98 -6 1763.88 -3.54 1767.13 -3.6 1767.17 8.16 1782.76 8.22 1782.71 10.6 1785.87 29.02 1771.97"/>
      </g>
      <polygon class="cls-24" points="60.27 1846.41 58.86 1844.54 65.77 1839.33 67.09 1841.08 74.37 1835.59 70.58 1830.56 68.72 1831.97 64.25 1826.04 60.69 1828.72 57.83 1824.94 51.4 1829.8 54.25 1833.58 51.92 1835.34 50.47 1833.42 39.6 1841.63 41.05 1843.55 41.01 1843.57 47.96 1852.77 47.99 1852.75 49.4 1854.61 60.27 1846.41"/>
      <polygon class="cls-24" points="4.52 1681.18 3.11 1679.32 10.02 1674.1 11.34 1675.85 18.62 1670.36 14.83 1665.33 12.97 1666.74 8.49 1660.81 4.94 1663.5 2.08 1659.71 -4.35 1664.57 -1.5 1668.35 -3.83 1670.11 -5.28 1668.19 -16.16 1676.4 -14.71 1678.32 -14.74 1678.34 -7.79 1687.55 -7.76 1687.52 -6.36 1689.39 4.52 1681.18"/>
    </g>
    <g>
      <rect class="cls-18" x="157.92" y="1846.73" width="229.26" height="114.63" transform="translate(180.73 -17.21) rotate(5.41)"/>
      <g>
        <polygon class="cls-13" points="304.53 1887.63 298.18 1887.03 299.57 1872.28 249.59 1867.55 248.19 1882.3 241.84 1881.7 237.57 1926.76 243.92 1927.37 242.53 1942.11 292.51 1946.85 293.91 1932.1 300.26 1932.7 304.53 1887.63"/>
        <polygon class="cls-29" points="285.94 1916.92 281.43 1916.5 283.02 1899.79 287.25 1900.19 288.92 1882.57 276.76 1881.42 276.34 1885.93 262 1884.57 261.18 1893.17 252.03 1892.31 250.56 1907.88 259.71 1908.74 259.17 1914.39 254.53 1913.95 252.04 1940.25 256.68 1940.69 256.68 1940.77 278.94 1942.88 278.94 1942.8 283.45 1943.23 285.94 1916.92"/>
      </g>
      <polygon class="cls-24" points="190.29 1867.45 187.63 1867.19 188.57 1857.33 191.07 1857.57 192.05 1847.16 184.87 1846.48 184.62 1849.15 176.16 1848.34 175.68 1853.42 170.27 1852.91 169.4 1862.1 174.8 1862.62 174.49 1865.95 171.75 1865.69 170.28 1881.22 173.02 1881.48 173.01 1881.52 186.16 1882.77 186.16 1882.72 188.82 1882.98 190.29 1867.45"/>
    </g>
    <g>
      <rect class="cls-3" x="190.43" y="1778.19" width="200.2" height="100.1" transform="translate(-1000.24 501.29) rotate(-35.18)"/>
      <g>
        <polygon class="cls-4" points="302.41 1799.19 297.85 1802.4 290.4 1791.82 254.56 1817.08 262.02 1827.66 257.47 1830.86 280.24 1863.18 284.79 1859.97 292.25 1870.54 328.08 1845.28 320.63 1834.71 325.18 1831.5 302.41 1799.19"/>
        <polygon class="cls-29" points="306.72 1829.17 303.49 1831.45 295.05 1819.47 298.08 1817.33 289.18 1804.7 280.47 1810.84 282.74 1814.07 272.46 1821.32 276.81 1827.49 270.25 1832.11 278.12 1843.27 284.68 1838.65 287.53 1842.7 284.2 1845.04 297.5 1863.9 300.83 1861.55 300.86 1861.61 316.82 1850.36 316.78 1850.31 320.02 1848.03 306.72 1829.17"/>
      </g>
      <polygon class="cls-24" points="382.14 1800.35 380.23 1801.7 375.24 1794.62 377.04 1793.36 371.78 1785.9 366.63 1789.53 367.98 1791.44 361.91 1795.72 364.48 1799.36 360.6 1802.09 365.25 1808.68 369.12 1805.95 370.8 1808.34 368.84 1809.72 376.69 1820.86 378.65 1819.47 378.68 1819.51 388.1 1812.86 388.08 1812.83 389.98 1811.49 382.14 1800.35"/>
      <polygon class="cls-24" points="215.18 1850.7 213.27 1852.05 208.29 1844.97 210.08 1843.71 204.83 1836.25 199.68 1839.88 201.02 1841.79 194.95 1846.07 197.52 1849.71 193.65 1852.44 198.29 1859.03 202.17 1856.3 203.85 1858.69 201.89 1860.07 209.73 1871.21 211.7 1869.82 211.72 1869.86 221.15 1863.21 221.12 1863.18 223.03 1861.84 215.18 1850.7"/>
    </g>
    <g>
      <rect class="cls-18" x="946.48" y="1858.09" width="229.26" height="114.63" transform="translate(1474.19 -234.96) rotate(39.86)"/>
      <g>
        <polygon class="cls-13" points="1096.76 1919.96 1091.86 1915.87 1101.36 1904.5 1062.82 1872.32 1053.33 1883.69 1048.43 1879.6 1019.42 1914.35 1024.31 1918.44 1014.82 1929.81 1053.36 1961.99 1062.85 1950.62 1067.75 1954.71 1096.76 1919.96"/>
        <polygon class="cls-29" points="1064.87 1933.6 1061.39 1930.7 1072.15 1917.81 1075.41 1920.54 1086.75 1906.96 1077.38 1899.13 1074.48 1902.61 1063.42 1893.37 1057.89 1900.01 1050.83 1894.12 1040.81 1906.12 1047.86 1912.01 1044.23 1916.36 1040.65 1913.38 1023.71 1933.66 1027.29 1936.65 1027.25 1936.71 1044.41 1951.04 1044.46 1950.98 1047.93 1953.88 1064.87 1933.6"/>
      </g>
      <polygon class="cls-24" points="1013.98 1838.69 1011.93 1836.98 1018.28 1829.37 1020.21 1830.98 1026.91 1822.96 1021.37 1818.34 1019.66 1820.39 1013.13 1814.94 1009.86 1818.86 1005.7 1815.38 999.78 1822.47 1003.94 1825.95 1001.8 1828.52 999.68 1826.75 989.69 1838.73 991.8 1840.49 991.77 1840.53 1001.9 1848.99 1001.93 1848.95 1003.98 1850.66 1013.98 1838.69"/>
    </g>
    <g>
      <rect class="cls-18" x="863.57" y="1685.92" width="229.26" height="114.63" transform="translate(-39.56 22.8) rotate(-1.31)"/>
      <g>
        <polygon class="cls-13" points="1008.04 1723.19 1001.66 1723.33 1001.32 1708.52 951.13 1709.67 951.47 1724.48 945.09 1724.63 946.12 1769.88 952.5 1769.74 952.84 1784.55 1003.03 1783.4 1002.69 1768.59 1009.07 1768.44 1008.04 1723.19"/>
        <polygon class="cls-29" points="993.01 1754.45 988.48 1754.55 988.1 1737.78 992.35 1737.68 991.95 1719.99 979.74 1720.27 979.84 1724.79 965.44 1725.12 965.64 1733.76 956.45 1733.97 956.81 1749.61 966 1749.4 966.13 1755.06 961.46 1755.17 962.07 1781.59 966.73 1781.48 966.73 1781.56 989.09 1781.05 989.09 1780.97 993.61 1780.86 993.01 1754.45"/>
      </g>
      <polygon class="cls-24" points="1083.1 1775.18 1080.43 1775.24 1080.2 1765.33 1082.71 1765.28 1082.47 1754.83 1075.27 1755 1075.33 1757.67 1066.83 1757.86 1066.94 1762.96 1061.52 1763.09 1061.73 1772.32 1067.15 1772.19 1067.23 1775.54 1064.48 1775.6 1064.83 1791.2 1067.59 1791.14 1067.59 1791.18 1080.79 1790.88 1080.79 1790.84 1083.46 1790.77 1083.1 1775.18"/>
      <polygon class="cls-24" points="892.23 1716.5 889.56 1716.56 889.33 1706.66 891.84 1706.6 891.6 1696.15 884.39 1696.32 884.46 1698.99 875.95 1699.19 876.07 1704.29 870.64 1704.41 870.86 1713.64 876.28 1713.52 876.36 1716.86 873.6 1716.93 873.96 1732.52 876.71 1732.46 876.71 1732.51 889.91 1732.21 889.91 1732.16 892.58 1732.1 892.23 1716.5"/>
    </g>
    <g>
      <rect class="cls-18" x="932.11" y="1657.33" width="229.26" height="114.63" transform="translate(592.52 -242.23) rotate(18.34)"/>
      <g>
        <polygon class="cls-13" points="1081.57 1705.8 1075.52 1703.79 1080.18 1689.73 1032.52 1673.94 1027.86 1688 1021.8 1685.99 1007.56 1728.96 1013.62 1730.97 1008.96 1745.03 1056.62 1760.82 1061.28 1746.76 1067.33 1748.77 1081.57 1705.8"/>
        <polygon class="cls-29" points="1056.91 1730.19 1052.61 1728.76 1057.89 1712.83 1061.93 1714.17 1067.49 1697.37 1055.9 1693.53 1054.48 1697.83 1040.81 1693.3 1038.09 1701.5 1029.36 1698.61 1024.44 1713.46 1033.17 1716.35 1031.39 1721.73 1026.96 1720.26 1018.65 1745.34 1023.07 1746.81 1023.05 1746.88 1044.27 1753.92 1044.3 1753.84 1048.6 1755.27 1056.91 1730.19"/>
      </g>
      <polygon class="cls-24" points="974.75 1660.57 972.21 1659.73 975.33 1650.32 977.71 1651.11 981 1641.2 974.16 1638.93 973.32 1641.47 965.24 1638.79 963.64 1643.63 958.49 1641.93 955.58 1650.69 960.73 1652.4 959.68 1655.58 957.07 1654.71 952.16 1669.52 954.77 1670.38 954.76 1670.43 967.29 1674.58 967.31 1674.54 969.84 1675.38 974.75 1660.57"/>
    </g>
    <g>
      <rect class="cls-18" x="911.26" y="1770.41" width="229.26" height="114.63" transform="translate(-321.61 222.34) rotate(-10.7)"/>
      <g>
        <polygon class="cls-13" points="1052.05 1803.08 1045.79 1804.26 1043.04 1789.71 993.7 1799.03 996.45 1813.59 990.19 1814.77 998.59 1859.25 1004.86 1858.07 1007.61 1872.63 1056.95 1863.3 1054.19 1848.74 1060.46 1847.56 1052.05 1803.08"/>
        <polygon class="cls-29" points="1042.33 1836.38 1037.88 1837.22 1034.76 1820.73 1038.94 1819.94 1035.66 1802.55 1023.66 1804.82 1024.5 1809.27 1010.35 1811.94 1011.95 1820.43 1002.92 1822.14 1005.83 1837.5 1014.86 1835.8 1015.91 1841.37 1011.33 1842.24 1016.23 1868.2 1020.82 1867.33 1020.83 1867.41 1042.8 1863.25 1042.79 1863.18 1047.24 1862.34 1042.33 1836.38"/>
      </g>
      <polygon class="cls-24" points="936.71 1815.39 934.08 1815.88 932.24 1806.15 934.71 1805.68 932.77 1795.42 925.68 1796.76 926.18 1799.38 917.82 1800.96 918.77 1805.97 913.44 1806.98 915.15 1816.06 920.49 1815.05 921.11 1818.34 918.4 1818.85 921.3 1834.18 924.01 1833.67 924.01 1833.71 936.99 1831.26 936.98 1831.21 939.6 1830.72 936.71 1815.39"/>
    </g>
    <g>
      <rect class="cls-18" x="752.96" y="1820.14" width="229.26" height="114.63" transform="translate(889.49 -190.65) rotate(25.41)"/>
      <g>
        <polygon class="cls-13" points="903.25 1872.97 897.49 1870.23 903.85 1856.85 858.5 1835.31 852.14 1848.69 846.38 1845.95 826.96 1886.84 832.72 1889.58 826.36 1902.96 871.71 1924.5 878.07 1911.12 883.83 1913.86 903.25 1872.97"/>
        <polygon class="cls-29" points="875.77 1894.13 871.68 1892.19 878.88 1877.03 882.72 1878.86 890.32 1862.87 879.29 1857.64 877.35 1861.72 864.34 1855.54 860.63 1863.35 852.33 1859.41 845.62 1873.53 853.92 1877.48 851.49 1882.6 847.27 1880.6 835.94 1904.46 840.15 1906.46 840.12 1906.53 860.31 1916.13 860.35 1916.06 864.43 1918 875.77 1894.13"/>
      </g>
      <polygon class="cls-24" points="802.81 1814.93 800.4 1813.78 804.65 1804.83 806.92 1805.91 811.4 1796.47 804.89 1793.38 803.74 1795.79 796.06 1792.14 793.87 1796.75 788.97 1794.42 785.01 1802.76 789.91 1805.09 788.47 1808.12 785.99 1806.93 779.29 1821.03 781.78 1822.21 781.76 1822.25 793.69 1827.91 793.71 1827.87 796.12 1829.02 802.81 1814.93"/>
    </g>
    <g>
      <rect class="cls-18" x="509.37" y="1847.88" width="229.26" height="114.63" transform="translate(-580.75 302.79) rotate(-18.8)"/>
      <g>
        <polygon class="cls-13" points="646.43 1877.11 640.39 1879.16 635.62 1865.14 588.09 1881.32 592.87 1895.34 586.83 1897.4 601.42 1940.25 607.46 1938.2 612.23 1952.22 659.76 1936.04 654.98 1922.01 661.02 1919.96 646.43 1877.11"/>
        <polygon class="cls-29" points="641.49 1911.44 637.21 1912.9 631.8 1897.01 635.83 1895.64 630.12 1878.89 618.57 1882.83 620.02 1887.11 606.39 1891.75 609.18 1899.94 600.47 1902.9 605.52 1917.7 614.22 1914.74 616.04 1920.11 611.63 1921.61 620.14 1946.62 624.56 1945.12 624.58 1945.19 645.75 1937.99 645.73 1937.91 650.01 1936.45 641.49 1911.44"/>
      </g>
      <polygon class="cls-24" points="733.65 1904.13 731.12 1904.99 727.93 1895.61 730.31 1894.8 726.94 1884.91 720.12 1887.23 720.98 1889.76 712.93 1892.5 714.57 1897.34 709.43 1899.08 712.41 1907.82 717.55 1906.08 718.63 1909.24 716.02 1910.13 721.05 1924.9 723.65 1924.01 723.67 1924.06 736.17 1919.8 736.15 1919.76 738.68 1918.9 733.65 1904.13"/>
      <polygon class="cls-24" points="533.97 1905.54 531.44 1906.4 528.25 1897.02 530.62 1896.22 527.25 1886.32 520.43 1888.65 521.29 1891.18 513.24 1893.92 514.89 1898.75 509.75 1900.5 512.73 1909.24 517.86 1907.49 518.94 1910.66 516.33 1911.55 521.36 1926.31 523.97 1925.43 523.98 1925.47 536.48 1921.21 536.47 1921.17 539 1920.31 533.97 1905.54"/>
    </g>
    <g>
      <rect class="cls-18" x="586.99" y="1727.37" width="229.26" height="114.63" transform="translate(491.19 -121.38) rotate(15.16)"/>
      <g>
        <polygon class="cls-13" points="735.91 1773.92 729.76 1772.25 733.63 1757.95 685.17 1744.82 681.3 1759.12 675.14 1757.45 663.3 1801.14 669.46 1802.81 665.58 1817.11 714.04 1830.24 717.92 1815.94 724.07 1817.61 735.91 1773.92"/>
        <polygon class="cls-29" points="712.64 1799.64 708.27 1798.45 712.66 1782.26 716.76 1783.37 721.39 1766.29 709.6 1763.1 708.42 1767.47 694.52 1763.7 692.26 1772.04 683.39 1769.64 679.3 1784.73 688.17 1787.13 686.68 1792.61 682.18 1791.39 675.27 1816.89 679.77 1818.11 679.75 1818.18 701.34 1824.03 701.36 1823.96 705.73 1825.14 712.64 1799.64"/>
      </g>
      <polygon class="cls-24" points="793.16 1845.06 790.58 1844.36 793.17 1834.8 795.59 1835.45 798.32 1825.37 791.37 1823.48 790.67 1826.06 782.46 1823.84 781.12 1828.76 775.89 1827.34 773.47 1836.26 778.71 1837.68 777.83 1840.91 775.18 1840.19 771.1 1855.24 773.75 1855.96 773.74 1856.01 786.48 1859.46 786.5 1859.42 789.08 1860.12 793.16 1845.06"/>
      <polygon class="cls-24" points="626.75 1734.67 624.17 1733.98 626.76 1724.41 629.19 1725.07 631.92 1714.98 624.96 1713.1 624.26 1715.68 616.05 1713.45 614.72 1718.38 609.48 1716.96 607.07 1725.87 612.3 1727.29 611.43 1730.52 608.77 1729.8 604.69 1744.86 607.35 1745.58 607.34 1745.62 620.08 1749.08 620.09 1749.03 622.67 1749.73 626.75 1734.67"/>
    </g>
    <g>
      <rect class="cls-3" x="702.75" y="1704.01" width="200.2" height="100.1" transform="translate(-813.61 701.28) rotate(-32.33)"/>
      <g>
        <polygon class="cls-4" points="816.16 1725.63 811.46 1728.61 804.54 1717.68 767.49 1741.13 774.41 1752.06 769.7 1755.04 790.84 1788.44 795.55 1785.46 802.47 1796.39 839.52 1772.94 832.6 1762.01 837.3 1759.03 816.16 1725.63"/>
        <polygon class="cls-29" points="818.98 1755.79 815.64 1757.9 807.81 1745.52 810.94 1743.54 802.68 1730.48 793.67 1736.18 795.78 1739.52 785.16 1746.25 789.19 1752.62 782.41 1756.92 789.71 1768.46 796.5 1764.16 799.14 1768.35 795.7 1770.53 808.04 1790.02 811.48 1787.84 811.52 1787.9 828.02 1777.46 827.98 1777.4 831.32 1775.29 818.98 1755.79"/>
      </g>
      <polygon class="cls-24" points="895.73 1730.76 893.76 1732 889.14 1724.69 890.99 1723.52 886.11 1715.81 880.79 1719.18 882.04 1721.15 875.76 1725.12 878.15 1728.89 874.14 1731.42 878.45 1738.23 882.46 1735.7 884.02 1738.17 881.99 1739.46 889.27 1750.97 891.31 1749.68 891.33 1749.71 901.07 1743.55 901.05 1743.52 903.02 1742.27 895.73 1730.76"/>
      <polygon class="cls-24" points="726.49 1772.75 724.51 1774 719.89 1766.68 721.74 1765.51 716.86 1757.8 711.54 1761.17 712.79 1763.14 706.51 1767.11 708.9 1770.88 704.89 1773.41 709.2 1780.22 713.21 1777.69 714.77 1780.16 712.74 1781.45 720.03 1792.96 722.06 1791.67 722.08 1791.71 731.82 1785.54 731.8 1785.51 733.77 1784.26 726.49 1772.75"/>
    </g>
    <g>
      <g>
        <rect class="cls-16" x="436.79" y="1589.22" width="209.68" height="126.5"/>
        <polygon class="cls-1" points="637.2 1309.64 637.2 1270.36 448.89 1270.36 448.89 1309.64 395.17 1309.64 395.17 1657.38 690.92 1657.38 690.92 1309.64 637.2 1309.64"/>
        <rect class="cls-27" x="521.77" y="1356.43" width="32.93" height="32.93"/>
        <rect class="cls-27" x="521.77" y="1432.97" width="32.93" height="32.93"/>
        <rect class="cls-27" x="521.77" y="1509.5" width="32.93" height="32.93"/>
        <g>
          <polygon class="cls-19" points="531.78 1795.22 400.08 1795.22 452.07 1729.37 531.78 1729.37 531.78 1795.22"/>
          <polygon class="cls-19" points="551.49 1795.22 683.19 1795.22 631.2 1729.37 551.49 1729.37 551.49 1795.22"/>
        </g>
        <rect class="cls-19" x="378.09" y="1804.1" width="327.09" height="44.62"/>
      </g>
      <g>
        <g>
          <polygon class="cls-1" points="635.9 894.61 563.12 894.61 563.12 858.65 486.44 858.65 486.44 896.77 446.58 896.77 446.58 955.69 470.41 955.69 470.41 1043.64 607.31 1043.64 607.31 950.49 635.9 950.49 635.9 894.61"/>
          <line class="cls-10" x1="512.28" y1="952.66" x2="512.28" y2="1034.11"/>
          <line class="cls-10" x1="556.47" y1="937.35" x2="556.47" y2="1034.11"/>
        </g>
        <g>
          <g>
            <g>
              <path class="cls-22" d="M665.34,1175.79h24.69v61.09l-42.02,42.02h-24.69l-28.38,28.38h-106.79l-23.94-23.94h-34.12l-40.13-40.13c.09-22.04.18-44.08.27-66.12,8.66-.29,17.33-.58,25.99-.87"/>
              <path class="cls-27" d="M415.45,1176.22v-98.78l47.22-47.22h29.89v-29.03h86.65v25.99h45.06l40.29,49.82v98.78"/>
            </g>
            <path class="cls-15" d="M665.34,1077.02v98.78h24.69v61.09l-42.02,42.02h-24.69l-28.38,28.38h-106.79l-23.94-23.94h-34.12l-40.13-40.13c.09-22.04.18-44.08.27-66.12,8.66-.29,17.33-.58,25.99-.87v-98.78l47.22-47.22h29.89v-29.03h86.65v25.99h45.06l40.29,49.82Z"/>
          </g>
          <g>
            <g>
              <line class="cls-8" x1="500.01" y1="1203.64" x2="574.24" y2="1203.64"/>
              <line class="cls-15" x1="537.12" y1="1248.7" x2="537.12" y2="1204.51"/>
            </g>
            <line class="cls-20" x1="447.73" y1="1088.12" x2="499.43" y2="1088.12"/>
            <line class="cls-20" x1="574.38" y1="1090.43" x2="626.08" y2="1090.43"/>
            <g>
              <g>
                <rect x="448.31" y="1119.68" width="51.73" height="51.73"/>
                <rect class="cls-26" x="471.45" y="1119.68" width="28.59" height="28.59"/>
              </g>
              <g>
                <rect x="574.51" y="1119.68" width="51.73" height="51.73"/>
                <rect class="cls-26" x="597.65" y="1119.68" width="28.59" height="28.59"/>
              </g>
            </g>
          </g>
        </g>
        <g>
          <path class="cls-27" d="M442.71,1055.91v-49.15c-13.23-5.78-26.45-11.55-39.68-17.33-14.84,5.78-29.68,11.55-44.52,17.33v49.15h84.2Z"/>
          <path class="cls-22" d="M358.48,1056.14c.02,16.38.04,32.77.05,49.15,13.23,5.76,26.47,11.53,39.7,17.29,14.83-5.79,29.67-11.58,44.5-17.37-.02-16.38-.04-32.77-.05-49.15l-84.2.07Z"/>
          <path class="cls-15" d="M440.09,1105.82c-12.26,6.07-24.52,12.13-36.78,18.2-15.81-6.07-31.62-12.13-47.42-18.2v-108.31c14.84-5.78,29.68-11.55,44.52-17.33,13.23,5.78,26.45,11.55,39.68,17.33v108.31Z"/>
        </g>
        <g>
          <path class="cls-27" d="M724.08,1052.6v-49.15c-13.23-5.78-26.45-11.55-39.68-17.33-14.84,5.78-29.68,11.55-44.52,17.33v49.15h84.2Z"/>
          <path class="cls-22" d="M639.85,1052.83c.02,16.38.04,32.77.05,49.15,13.23,5.76,26.47,11.53,39.7,17.29,14.83-5.79,29.67-11.58,44.5-17.37-.02-16.38-.04-32.77-.05-49.15l-84.2.07Z"/>
          <path class="cls-15" d="M721.47,1102.51c-12.26,6.07-24.52,12.13-36.78,18.2-15.81-6.07-31.62-12.13-47.42-18.2v-108.31c14.84-5.78,29.68-11.55,44.52-17.33,13.23,5.78,26.45,11.55,39.68,17.33v108.31Z"/>
        </g>
      </g>
    </g>
    <g>
      <polygon class="cls-9" points="845.07 1456.47 836.42 1451.08 881.02 1379.49 879.71 1378.68 899.64 1346.69 844.31 1312.22 824.38 1344.21 813.89 1337.67 763.25 1418.96 773.21 1425.17 761.61 1443.78 779.7 1455.06 766.31 1476.56 799.87 1497.47 813.27 1475.97 827.43 1484.79 845.07 1456.47"/>
      <polygon class="cls-9" points="936.94 1513.71 945.59 1519.1 990.19 1447.51 991.5 1448.33 1011.43 1416.34 1066.76 1450.81 1046.83 1482.8 1057.32 1489.33 1006.67 1570.62 996.71 1564.41 985.11 1583.03 967.02 1571.76 953.62 1593.26 920.06 1572.35 933.45 1550.85 919.29 1542.03 936.94 1513.71"/>
      <g>
        <g>
          <polygon class="cls-25" points="1041.4 1415.11 1026.94 1406.1 1039.46 1385.99 1010.36 1367.86 1020.16 1352.13 955.91 1312.1 946.11 1327.83 917 1309.7 904.48 1329.8 890.01 1320.79 808.98 1450.85 859.37 1482.25 845.59 1504.36 896.2 1535.89 909.98 1513.78 960.37 1545.17 1041.4 1415.11"/>
          <polygon class="cls-28" points="954.89 1470.9 939.82 1461.51 958.44 1431.61 944.15 1422.71 971.27 1379.18 993.82 1393.23 1019.63 1351.8 956.44 1312.43 930.62 1353.86 953.18 1367.91 926.06 1411.44 911.77 1402.53 893.14 1432.43 878.06 1423.03 845.39 1475.48 856.8 1482.58 843.89 1503.3 897.91 1536.95 910.81 1516.24 922.22 1523.34 954.89 1470.9"/>
        </g>
        <g>
          <polygon class="cls-5" points="1041.4 1415.11 1026.94 1406.1 1039.46 1385.99 1010.36 1367.86 1020.16 1352.13 955.91 1312.1 946.11 1327.83 917 1309.7 904.48 1329.8 890.01 1320.79 808.98 1450.85 859.37 1482.25 845.59 1504.36 896.2 1535.89 909.98 1513.78 960.37 1545.17 1041.4 1415.11"/>
          <g>
            <g>
              <line class="cls-17" x1="879.18" y1="1458" x2="924.1" y2="1485.99"/>
              <line class="cls-5" x1="884.65" y1="1499.27" x2="901.31" y2="1472.52"/>
            </g>
            <g>
              <g>
                <rect x="892.6" y="1353.57" width="36.89" height="36.89" transform="translate(863.32 -274.24) rotate(31.92)"/>
                <rect class="cls-26" x="912.22" y="1359.18" width="20.39" height="20.39" transform="translate(863.64 -280.65) rotate(31.92)"/>
              </g>
              <g>
                <rect x="968.99" y="1401.16" width="36.89" height="36.89" transform="translate(900.04 -307.43) rotate(31.92)"/>
                <rect class="cls-26" x="988.6" y="1406.77" width="20.39" height="20.39" transform="translate(900.36 -313.84) rotate(31.92)"/>
              </g>
            </g>
          </g>
        </g>
      </g>
    </g>
    <g>
      <polygon class="cls-6" points="123.37 1478.06 72.22 1507.19 25.87 1425.81 82.87 1421.41 123.37 1478.06"/>
      <polygon class="cls-6" points="259.15 1398.59 310.3 1369.45 263.94 1288.06 231.08 1334.85 259.15 1398.59"/>
      <path class="cls-2" d="M86.15,1517.73l23.82,41.82,23.06,6.33,9.66,16.96,45.69,12.53,27.13-15.45,4.56-16.63,65.99-37.58,19.41,5.32,24.37-13.88,11.87-43.3-11.05-19.39,7.26-26.47-21.14-37.11-18.46,10.51c-8.35-14.33-16.7-28.66-25.05-42.99-7.43,4.48-14.86,8.96-22.29,13.44-3.86-6.78-7.73-13.56-11.59-20.35-10.37,5.78-20.74,11.56-31.1,17.34-3.27-5.75-6.55-11.49-9.82-17.24l-84.21,47.97,10.14,17.8-31.09,17.71,10.14,17.8-22.32,12.72c7.7,13.95,15.4,27.91,23.1,41.86l-18.09,10.3Z"/>
      <g>
        <polygon class="cls-30" points="251.11 1508.6 238.45 1486.37 202.56 1506.81 215.23 1529.04 206.04 1534.27 218.49 1556.13 231.47 1578.92 285.73 1548.02 260.3 1503.37 251.11 1508.6"/>
        <path class="cls-12" d="M248.41,1506.15c4.08-2.32,8.16-4.65,12.25-6.97,8.74,15.48,17.47,30.97,26.21,46.45l-53.88,30.69c-8.73-15.32-17.45-30.65-26.18-45.97,4.05-2.23,8.11-4.45,12.16-6.68"/>
      </g>
      <g>
        <g>
          <line class="cls-7" x1="190.76" y1="1497.38" x2="239.18" y2="1469.8"/>
          <line class="cls-12" x1="231.71" y1="1512.98" x2="215.29" y2="1484.15"/>
        </g>
        <g>
          <g>
            <rect x="131.15" y="1476.36" width="38.83" height="38.83" transform="translate(-720.56 270.56) rotate(-29.66)"/>
            <rect class="cls-26" x="143.08" y="1473.2" width="21.46" height="21.46" transform="translate(-714.28 270.62) rotate(-29.66)"/>
          </g>
          <g>
            <rect x="239.84" y="1414.45" width="38.83" height="38.83" transform="translate(-675.68 316.24) rotate(-29.66)"/>
            <rect class="cls-26" x="251.77" y="1411.29" width="21.46" height="21.46" transform="translate(-669.39 316.3) rotate(-29.66)"/>
          </g>
        </g>
      </g>
    </g>
    <g>
      <polygon class="cls-11" points="850.74 667.52 820.29 667.52 820.29 645.51 259.71 645.51 259.71 667.52 229.26 667.52 229.26 774.65 259.71 774.65 259.71 796.66 820.29 796.66 820.29 774.65 850.74 774.65 850.74 667.52"/>
      <g>
        <path class="cls-27" d="M365.99,728.33h-14.5v29h-14.5v-72.5h14.5v29h14.5v-29h14.5v72.5h-14.5v-29Z"/>
        <path class="cls-27" d="M394.99,684.83h14.5v72.5h-14.5v-72.5Z"/>
        <path class="cls-27" d="M423.99,742.84h29v-14.5h-29v-43.5h43.5v14.5h-29v14.5h29v43.5h-43.5v-14.5Z"/>
        <path class="cls-27" d="M496.5,699.33h-14.5v-14.5h43.5v14.5h-14.5v58h-14.5v-58Z"/>
        <path class="cls-27" d="M540,684.83h43.5v72.5h-43.5v-72.5ZM569,699.33h-14.5v43.5h14.5v-43.5Z"/>
        <path class="cls-27" d="M627,728.33h-14.5v29h-14.5v-72.5h43.5v29h-14.5v-14.5h-14.5v14.5h14.5v14.5ZM627,728.33h14.5v29h-14.5v-29Z"/>
        <path class="cls-27" d="M656.01,684.83h14.5v72.5h-14.5v-72.5Z"/>
        <path class="cls-27" d="M699.51,713.83h14.5v-14.5h14.5v58h-14.5v-29h-14.5v29h-14.5v-58h14.5v14.5ZM699.51,684.83h14.5v14.5h-14.5v-14.5Z"/>
      </g>
    </g>
    <polygon class="cls-14" points="803.7 1156.47 808.6 1153.62 812.42 1160.2 817.62 1157.17 822.79 1166.08 809.43 1174.1 823.24 1197.88 836.6 1189.86 841.8 1198.82 850.86 1193.56 855.11 1200.88 872.86 1190.58 867.81 1181.89 873.84 1178.38 868.46 1169.11 874.18 1165.78 868.97 1156.8 928.53 1122.54 933.27 1130.78 943.95 1124.65 948.72 1132.95 958.68 1127.22 962.5 1133.86 976.97 1125.54 973.15 1118.9 980.74 1114.53 976.92 1107.9 981.83 1105.08 972.12 1088.18 967.21 1091 963.42 1084.41 958.2 1087.42 953.06 1078.48 966.46 1070.52 952.75 1046.68 939.36 1054.65 934.2 1045.67 925.11 1050.9 920.89 1043.55 903.1 1053.78 908.12 1062.5 902.07 1065.97 907.42 1075.28 901.68 1078.58 908.73 1090.85 849.03 1125.18 842.37 1113.7 831.72 1119.89 826.92 1111.6 816.98 1117.37 813.13 1110.75 798.7 1119.13 802.54 1125.75 794.97 1130.15 798.81 1136.76 793.92 1139.61 803.7 1156.47"/>
  </g>
</svg>